<svg width="145" height="145" viewBox="0 0 145 145" fill="none" xmlns="http://www.w3.org/2000/svg">
<path d="M96.6666 30.2083V24.1667C96.6666 20.962 95.3936 17.8885 93.1275 15.6225C90.8614 13.3564 87.788 12.0833 84.5833 12.0833H60.4166C57.2119 12.0833 54.1385 13.3564 51.8724 15.6225C49.6064 17.8885 48.3333 20.962 48.3333 24.1667V30.2083C41.9239 30.2083 35.777 32.7545 31.2449 37.2866C26.7127 41.8187 24.1666 47.9656 24.1666 54.375V120.833C24.1666 124.038 25.4397 127.111 27.7058 129.378C29.9718 131.644 33.0453 132.917 36.25 132.917H108.75C111.955 132.917 115.028 131.644 117.294 129.378C119.56 127.111 120.833 124.038 120.833 120.833V54.375C120.833 47.9656 118.287 41.8187 113.755 37.2866C109.223 32.7545 103.076 30.2083 96.6666 30.2083ZM60.4166 24.1667H84.5833V30.2083H60.4166V24.1667ZM72.5 54.375L84.5833 66.4583L72.5 78.5417L60.4166 66.4583L72.5 54.375ZM108.75 120.833H36.25V96.6667H48.3333V108.75H54.375V96.6667H108.75V120.833ZM108.75 90.625H36.25V54.375C36.25 51.1703 37.523 48.0969 39.7891 45.8308C42.0551 43.5647 45.1286 42.2917 48.3333 42.2917H96.6666C99.8713 42.2917 102.945 43.5647 105.211 45.8308C107.477 48.0969 108.75 51.1703 108.75 54.375V90.625Z" fill="white"/>
</svg>
