<svg width="145" height="145" viewBox="0 0 145 145" fill="none" xmlns="http://www.w3.org/2000/svg">
<path d="M126.875 18.125H18.125C11.4791 18.125 6.04163 23.5625 6.04163 30.2083V114.792C6.04163 121.438 11.4791 126.875 18.125 126.875H126.875C133.521 126.875 138.958 121.438 138.958 114.792V30.2083C138.958 23.5625 133.521 18.125 126.875 18.125ZM126.875 114.792H18.125V30.2083H126.875V114.792ZM30.2083 42.2917H54.375C58 42.2917 60.4166 44.7083 60.4166 48.3333V96.6667C60.4166 100.292 58 102.708 54.375 102.708H30.2083C26.5833 102.708 24.1666 100.292 24.1666 96.6667V48.3333C24.1666 44.7083 26.5833 42.2917 30.2083 42.2917ZM36.25 54.375V90.625H48.3333V54.375H36.25ZM90.625 42.2917H114.792C118.417 42.2917 120.833 44.7083 120.833 48.3333V96.6667C120.833 100.292 118.417 102.708 114.792 102.708H90.625C87 102.708 84.5833 100.292 84.5833 96.6667V48.3333C84.5833 44.7083 87 42.2917 90.625 42.2917ZM96.6666 54.375V90.625H108.75V54.375H96.6666Z" fill="white"/>
</svg>
